%TF.GenerationSoftware,KiCad,Pcbnew,(6.0.0)*%
%TF.CreationDate,2022-01-07T19:36:24+08:00*%
%TF.ProjectId,pj4_MCU,706a345f-4d43-4552-9e6b-696361645f70,1*%
%TF.SameCoordinates,Original*%
%TF.FileFunction,Copper,L2,Inr*%
%TF.FilePolarity,Positive*%
%FSLAX46Y46*%
G04 Gerber Fmt 4.6, Leading zero omitted, Abs format (unit mm)*
G04 Created by KiCad (PCBNEW (6.0.0)) date 2022-01-07 19:36:24*
%MOMM*%
%LPD*%
G01*
G04 APERTURE LIST*
%TA.AperFunction,ComponentPad*%
%ADD10O,1.700000X1.700000*%
%TD*%
%TA.AperFunction,ComponentPad*%
%ADD11R,1.700000X1.700000*%
%TD*%
%TA.AperFunction,ViaPad*%
%ADD12C,0.800000*%
%TD*%
%TA.AperFunction,Conductor*%
%ADD13C,0.250000*%
%TD*%
G04 APERTURE END LIST*
D10*
%TO.N,GND*%
%TO.C,BT1*%
X111318000Y-121346000D03*
D11*
%TO.N,/VCC*%
X111318000Y-118806000D03*
%TD*%
%TO.N,GND*%
%TO.C,J3*%
X157038000Y-125166000D03*
D10*
%TO.N,/VCC*%
X157038000Y-127706000D03*
%TO.N,/SDA*%
X157038000Y-130246000D03*
%TO.N,/SCK*%
X157038000Y-132786000D03*
%TD*%
D11*
%TO.N,/MISO*%
%TO.C,J2*%
X154498000Y-113726000D03*
D10*
%TO.N,/VCC*%
X157038000Y-113726000D03*
%TO.N,/SCK*%
X154498000Y-116266000D03*
%TO.N,/MOSI*%
X157038000Y-116266000D03*
%TO.N,/RESET*%
X154498000Y-118806000D03*
%TO.N,GND*%
X157038000Y-118806000D03*
%TD*%
D11*
%TO.N,GND*%
%TO.C,J4*%
X139258000Y-139126000D03*
D10*
%TO.N,/VCC*%
X141798000Y-139126000D03*
%TO.N,/RX*%
X144338000Y-139126000D03*
%TO.N,/TX*%
X146878000Y-139126000D03*
%TD*%
D11*
%TO.N,/D2*%
%TO.C,J1*%
X113868000Y-139126000D03*
D10*
%TO.N,/D3*%
X116408000Y-139126000D03*
%TO.N,/D4*%
X118948000Y-139126000D03*
%TO.N,/D5*%
X121488000Y-139126000D03*
%TO.N,/D6*%
X124028000Y-139126000D03*
%TO.N,/D7*%
X126568000Y-139126000D03*
%TO.N,/D8*%
X129108000Y-139126000D03*
%TO.N,GND*%
X131648000Y-139126000D03*
%TO.N,/VCC*%
X134188000Y-139126000D03*
%TD*%
D12*
%TO.N,/SDA*%
X138176000Y-113500500D03*
X135636000Y-111543500D03*
%TO.N,GND*%
X125168770Y-121133505D03*
%TO.N,/MISO*%
X137668000Y-124968000D03*
X144780000Y-125984000D03*
X146812000Y-120962469D03*
X146812000Y-124460000D03*
%TO.N,/VCC*%
X137668000Y-110527500D03*
X147828000Y-117348000D03*
X142748000Y-117348000D03*
X142448020Y-125984000D03*
X133096000Y-118147500D03*
X140208000Y-120962469D03*
%TO.N,GND*%
X140449500Y-117856000D03*
X132080000Y-119888000D03*
X131811972Y-117856000D03*
%TO.N,/VCC*%
X122428000Y-127508000D03*
X125775980Y-132588000D03*
X116332000Y-135128000D03*
X125209500Y-119887941D03*
X116840000Y-121920000D03*
X116840000Y-119380000D03*
X124714000Y-109474000D03*
%TO.N,GND*%
X144272000Y-127508000D03*
X148336000Y-125984000D03*
X148336000Y-112268000D03*
X145288000Y-112268000D03*
X141224000Y-110236000D03*
X136144000Y-110236000D03*
X129032000Y-110236000D03*
X120904000Y-115824000D03*
X122428000Y-114300000D03*
X116840000Y-131572000D03*
X116332000Y-120904000D03*
X116332000Y-123952000D03*
%TO.N,/RESET*%
X133604000Y-116332000D03*
X148844000Y-115824000D03*
%TO.N,/SCK*%
X122428000Y-118364000D03*
X122428000Y-118364000D03*
X134615693Y-118876307D03*
%TO.N,Net-(U4-Pad7)*%
X145288000Y-133604000D03*
X128174020Y-121412000D03*
X130147540Y-134620000D03*
%TO.N,/SCK*%
X153411701Y-130560299D03*
%TO.N,/SDA*%
X146812000Y-119380000D03*
X152400000Y-128524000D03*
%TO.N,Net-(U4-Pad20)*%
X150368000Y-122428000D03*
X136144000Y-119380000D03*
%TO.N,Net-(Y2-Pad1)*%
X133096000Y-110236000D03*
X131037472Y-121518875D03*
X133604000Y-127508000D03*
%TO.N,/SCK*%
X140208000Y-122211500D03*
X145288000Y-122428000D03*
%TO.N,/SDA*%
X136144000Y-116840000D03*
X142398020Y-116332000D03*
%TO.N,/MOSI*%
X136144000Y-121412000D03*
X142398020Y-121412000D03*
%TD*%
D13*
%TO.N,/SCK*%
X151816974Y-130560299D02*
X153411701Y-130560299D01*
X145288000Y-122428000D02*
X145288000Y-124031326D01*
X145288000Y-124031326D02*
X151816974Y-130560299D01*
%TO.N,/SDA*%
X137593000Y-113500500D02*
X138176000Y-113500500D01*
X135636000Y-111543500D02*
X137593000Y-113500500D01*
%TO.N,Net-(U4-Pad20)*%
X136652000Y-119888000D02*
X136144000Y-119380000D01*
X146295386Y-119888000D02*
X136652000Y-119888000D01*
X147112103Y-120104511D02*
X146511897Y-120104511D01*
X147828000Y-119888000D02*
X147328614Y-119888000D01*
X146511897Y-120104511D02*
X146295386Y-119888000D01*
X150368000Y-122428000D02*
X147828000Y-119888000D01*
X147328614Y-119888000D02*
X147112103Y-120104511D01*
%TO.N,/MISO*%
X143764000Y-124968000D02*
X137668000Y-124968000D01*
X144780000Y-125984000D02*
X143764000Y-124968000D01*
X146812000Y-120962469D02*
X146812000Y-124460000D01*
%TO.N,/SCK*%
X141732011Y-120687489D02*
X140208000Y-122211500D01*
X145288000Y-122428000D02*
X143547489Y-120687489D01*
X143547489Y-120687489D02*
X141732011Y-120687489D01*
%TO.N,/RESET*%
X134328511Y-115607489D02*
X133604000Y-116332000D01*
X148627489Y-115607489D02*
X134328511Y-115607489D01*
X148844000Y-115824000D02*
X148627489Y-115607489D01*
%TO.N,/SDA*%
X136652000Y-116332000D02*
X136144000Y-116840000D01*
X142398020Y-116332000D02*
X136652000Y-116332000D01*
%TO.N,Net-(U4-Pad7)*%
X144272000Y-134620000D02*
X145288000Y-133604000D01*
X130147540Y-134620000D02*
X144272000Y-134620000D01*
X128174020Y-121412000D02*
X128174020Y-132746020D01*
X130048000Y-134620000D02*
X130147540Y-134620000D01*
X128174020Y-132746020D02*
X130048000Y-134620000D01*
%TO.N,/SCK*%
X153323489Y-130472087D02*
X153323489Y-117440511D01*
X153323489Y-117440511D02*
X154498000Y-116266000D01*
X153411701Y-130560299D02*
X153323489Y-130472087D01*
%TO.N,/SDA*%
X148636114Y-119380000D02*
X146812000Y-119380000D01*
X152400000Y-123143886D02*
X148636114Y-119380000D01*
X152400000Y-128524000D02*
X152400000Y-123143886D01*
%TO.N,Net-(Y2-Pad1)*%
X131037472Y-112294528D02*
X133096000Y-110236000D01*
X131037472Y-121518875D02*
X131037472Y-112294528D01*
X133604000Y-127508000D02*
X131037472Y-124941472D01*
X131037472Y-124941472D02*
X131037472Y-121518875D01*
%TO.N,/MOSI*%
X142398020Y-121412000D02*
X140874020Y-122936000D01*
X140874020Y-122936000D02*
X137668000Y-122936000D01*
X137668000Y-122936000D02*
X136144000Y-121412000D01*
%TD*%
M02*
